<?xml version="1.0" encoding="UTF-8" standalone="no"?>
<!-- Created with Inkscape (http://www.inkscape.org/) -->

<svg
   width="4.4043822mm"
   height="143.5127mm"
   viewBox="0 0 4.4043822 143.5127"
   version="1.1"
   id="svg5"
   xml:space="preserve"
   sodipodi:docname="hsrdashed.svg"
   inkscape:version="1.2.1 (9c6d41e410, 2022-07-14)"
   xmlns:inkscape="http://www.inkscape.org/namespaces/inkscape"
   xmlns:sodipodi="http://sodipodi.sourceforge.net/DTD/sodipodi-0.dtd"
   xmlns="http://www.w3.org/2000/svg"
   xmlns:svg="http://www.w3.org/2000/svg"><sodipodi:namedview
     id="namedview7"
     pagecolor="#505050"
     bordercolor="#ffffff"
     borderopacity="1"
     inkscape:showpageshadow="0"
     inkscape:pageopacity="0"
     inkscape:pagecheckerboard="1"
     inkscape:deskcolor="#505050"
     inkscape:document-units="mm"
     showgrid="false"
     inkscape:zoom="14.638496"
     inkscape:cx="15.165492"
     inkscape:cy="535.71077"
     inkscape:window-width="3440"
     inkscape:window-height="1369"
     inkscape:window-x="-8"
     inkscape:window-y="-8"
     inkscape:window-maximized="1"
     inkscape:current-layer="layer1" /><defs
     id="defs2" /><g
     inkscape:label="Layer 1"
     inkscape:groupmode="layer"
     id="layer1"
     transform="translate(71.783215,-30.946431)"><path
       id="rect800"
       style="color:#000000;fill:#ffffff;stroke-linecap:square;stroke-linejoin:round;stroke-dasharray:1.85208, 1.32291;stroke-dashoffset:0.264583"
       d="m -68.620101,-30.946431 c -0.285846,-0.105701 -0.562418,-0.237014 -0.823205,-0.395325 l -0.113172,-0.06821 0.136426,-0.22686 0.113171,0.06873 c 0.512634,0.311193 1.088946,0.518638 1.682068,0.607198 l 0.09612,0.01447 z m -1.78232,-1.157036 -0.08992,-0.09767 c -0.431066,-0.466495 -0.767398,-1.018563 -0.984436,-1.615406 l -0.04496,-0.125056 0.248047,-0.0894 0.04496,0.12454 c 0.204937,0.563564 0.522724,1.085108 0.929659,1.525489 l 0.08992,0.09767 z m -1.343587,-2.906282 -0.0098,-0.132809 c -0.04741,-0.638353 0.06195,-1.256488 -0.01189,-1.843815 l -0.0155,-0.132808 0.261482,-0.03307 0.01809,0.132808 c 0.08053,0.640557 -0.03272,1.263683 0.01137,1.857251 l 0.0098,0.132809 z m -0.0217,-3.183785 v -0.132809 -1.851566 -0.132809 h 0.264066 v 0.132809 1.851566 0.132809 z m 0,-3.175517 v -0.132809 -1.851566 -0.132809 h 0.264066 v 0.132809 1.851566 0.132809 z m 0,-3.176034 v -0.130741 -1.853634 -0.130741 h 0.264066 v 0.130741 1.853634 0.130741 z m 0,-3.173449 v -0.132809 -1.851566 -0.132809 h 0.264066 v 0.132809 1.851566 0.132809 z m 0,-3.176034 v -0.132808 -1.851567 -0.132808 h 0.264066 v 0.132808 1.851567 0.132808 z m 0,-3.173966 v -0.132809 -1.851566 -0.132809 h 0.264066 v 0.132809 1.851566 0.132809 z m 0,-3.175517 v -0.132809 -1.851566 -0.132809 h 0.264066 v 0.132809 1.851566 0.132809 z m 0,-3.176034 v -0.130741 -1.853634 -0.130741 h 0.264066 v 0.130741 1.853634 0.130741 z m 0,-3.173449 v -0.132809 -1.851566 -0.132809 h 0.264066 v 0.132809 1.851566 0.132809 z m 0,-3.176034 v -0.132808 -1.851567 -0.132808 h 0.264066 v 0.132808 1.851567 0.132808 z m 0,-3.173966 v -0.132809 -1.851566 -0.132809 h 0.264066 v 0.132809 1.851566 0.132809 z m 0,-3.175517 v -0.132809 -1.851566 -0.132809 h 0.264066 v 0.132809 1.851566 0.132809 z m 0,-3.176034 v -0.130741 -1.853634 -0.130741 h 0.264066 v 0.130741 1.853634 0.130741 z m 0,-3.173449 v -0.132809 -1.851566 -0.132809 h 0.264066 v 0.132809 1.851566 0.132809 z m 0,-3.176034 v -0.132808 -1.851567 -0.132808 h 0.264066 v 0.132808 1.851567 0.132808 z m 0,-3.173966 v -0.132809 -1.851566 -0.132809 h 0.264066 v 0.132809 1.851566 0.132809 z m 0,-3.175517 v -0.132809 -1.851566 -0.132809 h 0.264066 v 0.132809 1.851566 0.132809 z m 0,-3.176034 v -0.130741 -1.853634 -0.130741 h 0.264066 v 0.130741 1.853634 0.130741 z m 0,-3.173449 v -0.132809 -1.851566 -0.132809 h 0.264066 v 0.132809 1.851566 0.132809 z m 0,-3.176034 v -0.132808 -1.851564 -0.13281 h 0.264066 v 0.13281 1.851564 0.132808 z m 0,-3.173962 v -0.13281 -1.85157 -0.13281 h 0.264066 v 0.13281 1.85157 0.13281 z m 0,-3.17552 v -0.13281 -1.85157 -0.1328 h 0.264066 v 0.1328 1.85157 0.13281 z m 0,-3.17603 v -0.13075 -1.85363 -0.13074 h 0.264066 v 0.13074 1.85363 0.13075 z m 0,-3.17345 v -0.13281 -1.85157 -0.13281 h 0.264066 v 0.13281 1.85157 0.13281 z m 0,-3.17604 v -0.13074 -1.85363 -0.13074 h 0.264066 v 0.13074 1.85363 0.13074 z m 0,-3.17396 v -0.13281 -1.85157 -0.13281 h 0.264066 v 0.13281 1.85157 0.13281 z m 0,-3.17552 v -0.13281 -1.85157 -0.1328 h 0.264066 v 0.1328 1.85157 0.13281 z m 0,-3.17603 v -0.13075 -1.85363 -0.13074 h 0.264066 v 0.13074 1.85363 0.13075 z m 0,-3.17345 v -0.13281 -1.85157 -0.13281 h 0.264066 v 0.13281 1.85157 0.13281 z m 0,-3.17604 v -0.13074 -1.85363 -0.13074 h 0.264066 v 0.13074 1.85363 0.13074 z m 0,-3.17396 v -0.13281 -1.85157 -0.13281 h 0.264066 v 0.13281 1.85157 0.13281 z m 0,-3.17552 v -0.13281 -1.85157 -0.1328 h 0.264066 v 0.1328 1.85157 0.13281 z m 0,-3.17603 v -0.13075 -1.85363 -0.13074 h 0.264066 v 0.13074 1.85363 0.13075 z m 0,-3.17345 v -0.13281 -1.85157 -0.13281 h 0.264066 v 0.13281 1.85157 0.13281 z m 0,-3.17604 v -0.13074 -1.85363 -0.13074 h 0.264066 v 0.13074 1.85363 0.13074 z m 0,-3.17396 v -0.13281 -1.85157 -0.13281 h 0.264066 v 0.13281 1.85157 0.13281 z m 0,-3.17552 v -0.13281 -1.85157 -0.1328 h 0.264066 v 0.1328 1.85157 0.13281 z m 0,-3.17397 v -0.13281 -1.85156 -0.13281 h 0.264066 v 0.13281 1.85156 0.13281 z m 0,-3.17551 v -0.13281 -1.85157 -0.13281 h 0.264066 v 0.13281 1.85157 0.13281 z m 0,-3.17604 v -0.13074 -1.85363 -0.13074 h 0.264066 v 0.13074 1.85363 0.13074 z m 0,-3.17396 v -0.13281 -1.85157 -0.13281 h 0.264066 v 0.13281 1.85157 0.13281 z m 0,-3.17552 v -0.13281 -1.40612 c 2e-4,-0.15216 0.0067,-0.30451 0.0217,-0.45733 l 0.01189,-0.13281 0.26355,0.0274 -0.01188,0.13074 c -0.01398,0.14298 -0.02099,0.28699 -0.02119,0.43201 v 1.40612 0.13281 z m 0.531233,-3.09594 -0.245979,-0.0956 0.04909,-0.12299 c 0.232137,-0.59109 0.582562,-1.13457 1.025261,-1.59008 l 0.09147,-0.0956 0.189652,0.18397 -0.09198,0.0956 c -0.417896,0.42998 -0.749197,0.94351 -0.968416,1.50171 z m 1.914095,-2.34559 -0.130741,-0.23048 0.115238,-0.0646 c 0.247137,-0.1417 0.508098,-0.25776 0.77618,-0.35347 h 1.182874 l -0.132808,0.0176 c -0.595185,0.0738 -1.175301,0.26604 -1.695504,0.56431 z"
       transform="scale(1,-1)" /></g></svg>
